PathFileType	4	(X/Y/Z)	C:\Users\86182\Documents\cortex\Trimmed_M1_H5.trc
DataRate	CameraRate	NumFrames	NumMarkers	Units	OrigDataRate	OrigDataStartFrame	OrigNumFrames
100.00	100.00	       84	2	mm	100.00	361	       901
Frame#	Time	gripper			box			
		X1	Y1	Z1	X2	Y2	Z2	

361	3.600	219.31602	203.06763	287.35968	222.57245	202.66293	142.59108	
362	3.610	219.24980	203.06445	287.34305	222.53510	202.65894	142.58090	
363	3.620	219.22147	203.06169	287.33585	222.51202	202.66020	142.57895	
364	3.630	219.23238	203.05820	287.33649	222.50854	202.66428	142.58319	
365	3.640	219.27672	203.05345	287.34253	222.52492	202.66913	142.59108	
366	3.650	219.34218	203.04761	287.35101	222.55731	202.67322	142.59959	
367	3.660	219.41267	203.04160	287.35913	222.59789	202.67557	142.60629	
368	3.670	219.47331	203.03650	287.36502	222.63544	202.67577	142.61018	
369	3.680	219.51411	203.03325	287.36786	222.65839	202.67424	142.61168	
370	3.690	219.53073	203.03229	287.36755	222.65950	202.67191	142.61201	
371	3.700	219.52342	203.03366	287.36441	222.63850	202.66969	142.61229	
372	3.710	219.49632	203.03708	287.35931	222.60141	202.66808	142.61301	
373	3.720	219.45770	203.04173	287.35352	222.55751	202.66710	142.61407	
374	3.730	219.41978	203.04634	287.34866	222.51614	202.66664	142.61523	
375	3.740	219.39525	203.04950	287.34616	222.48427	202.66687	142.61652	
376	3.750	219.39162	203.05040	287.34683	222.46533	202.66806	142.61816	
377	3.760	219.40860	203.04884	287.35052	222.45900	202.67024	142.62024	
378	3.770	219.43980	203.04523	287.35593	222.46184	202.67291	142.62247	
379	3.780	219.47572	203.04045	287.36115	222.46898	202.67546	142.62447	
380	3.790	219.50690	203.03568	287.36462	222.47574	202.67752	142.62605	
381	3.800	219.52666	203.03178	287.36560	222.47894	202.67894	142.62723	
382	3.810	219.53226	203.02928	287.36401	222.47795	202.67966	142.62794	
383	3.820	219.52466	203.02835	287.36041	222.47452	202.67966	142.62808	
384	3.830	219.50835	203.02899	287.35583	222.47169	202.67903	142.62762	
385	3.840	219.49077	203.03093	287.35172	222.47298	202.67798	142.62657	
386	3.850	219.48024	203.03348	287.34952	222.48143	202.67671	142.62502	
387	3.860	219.48241	203.03568	287.34995	222.49875	202.67522	142.62288	
388	3.870	219.49765	203.03662	287.35275	222.52454	202.67325	142.61990	
389	3.880	219.52109	203.03618	287.35693	222.55615	202.67067	142.61612	
390	3.890	219.54535	203.03494	287.36115	222.58833	202.66779	142.61198	
391	3.900	219.56395	203.03386	287.36407	222.61366	202.66528	142.60852	
392	3.910	219.57278	203.03366	287.36469	222.62482	202.66394	142.60675	
393	3.920	219.56958	203.03473	287.36258	222.61777	202.66412	142.60722	
394	3.930	219.55342	203.03697	287.35791	222.59392	202.66560	142.60965	
395	3.940	219.52499	203.03987	287.35156	222.55957	202.66759	142.61301	
396	3.950	219.48744	203.04240	287.34518	222.52280	202.66922	142.61613	
397	3.960	219.44743	203.04344	287.34076	222.49030	202.67012	142.61838	
398	3.970	219.41422	203.04233	287.33978	222.46648	202.67052	142.61977	
399	3.980	219.39645	203.03932	287.34265	222.45370	202.67093	142.62070	
400	3.990	219.39862	203.03531	287.34851	222.45226	202.67171	142.62151	
401	4.000	219.41925	203.03151	287.35574	222.46049	202.67274	142.62216	
402	4.010	219.45213	203.02882	287.36255	222.47557	202.67375	142.62247	
403	4.020	219.48874	203.02768	287.36758	222.49396	202.67444	142.62236	
404	4.030	219.52061	203.02827	287.37006	222.51149	202.67484	142.62199	
405	4.040	219.54164	203.03076	287.36969	222.52373	202.67526	142.62190	
406	4.050	219.54913	203.03522	287.36658	222.52766	202.67609	142.62251	
407	4.060	219.54347	203.04137	287.36108	222.52354	202.67738	142.62392	
408	4.070	219.52757	203.04852	287.35419	222.51434	202.67891	142.62576	
409	4.080	219.50670	203.05533	287.34735	222.50368	202.68036	142.62759	
410	4.090	219.48775	203.06012	287.34229	222.49428	202.68149	142.62906	
411	4.100	219.47734	203.06161	287.34045	222.48758	202.68224	142.63004	
412	4.110	219.47878	203.05960	287.34229	222.48392	202.68257	142.63051	
413	4.120	219.49014	203.05495	287.34741	222.48293	202.68259	142.63057	
414	4.130	219.50618	203.04903	287.35446	222.48370	202.68240	142.63036	
415	4.140	219.52104	203.04308	287.36191	222.48503	202.68213	142.63005	
416	4.150	219.52940	203.03815	287.36847	222.48570	202.68192	142.62981	
417	4.160	219.52701	203.03500	287.37357	222.48497	202.68179	142.62973	
418	4.170	219.51181	203.03391	287.37698	222.48267	202.68176	142.62982	
419	4.180	219.48520	203.03471	287.37875	222.47931	202.68175	142.62994	
420	4.190	219.45261	203.03682	287.37881	222.47568	202.68166	142.63000	
421	4.200	219.42303	203.03947	287.37717	222.47256	202.68146	142.62996	
422	4.210	219.40645	203.04187	287.37399	222.47067	202.68120	142.62979	
423	4.220	219.40952	203.04338	287.37003	222.47073	202.68100	142.62961	
424	4.230	219.43184	203.04346	287.36642	222.47322	202.68089	142.62939	
425	4.240	219.46640	203.04179	287.36441	222.47812	202.68077	142.62909	
426	4.250	219.50385	203.03883	287.36438	222.48499	202.68051	142.62854	
427	4.260	219.53676	203.03545	287.36581	222.49312	202.68004	142.62776	
428	4.270	219.56108	203.03238	287.36780	222.50124	202.67946	142.62685	
429	4.280	219.57536	203.02998	287.36963	222.50739	202.67900	142.62613	
430	4.290	219.58006	203.02831	287.37091	222.50964	202.67889	142.62595	
431	4.300	219.57686	203.02719	287.37158	222.50752	202.67926	142.62637	
432	4.310	219.56813	203.02637	287.37167	222.50217	202.67998	142.62727	
433	4.320	219.55666	203.02565	287.37152	222.49535	202.68083	142.62839	
434	4.330	219.54539	203.02502	287.37155	222.48860	202.68166	142.62947	
435	4.340	219.53722	203.02467	287.37201	222.48286	202.68234	142.63037	
436	4.350	219.53386	203.02484	287.37302	222.47852	202.68286	142.63104	
437	4.360	219.53445	203.02571	287.37439	222.47548	202.68323	142.63152	
438	4.370	219.53590	203.02724	287.37598	222.47345	202.68347	142.63184	
439	4.380	219.53497	203.02921	287.37750	222.47214	202.68362	142.63203	
440	4.390	219.53024	203.03140	287.37875	222.47128	202.68373	142.63217	
441	4.400	219.52219	203.03355	287.37952	222.47078	202.68379	142.63225	
442	4.410	219.51283	203.03545	287.37964	222.47078	202.68379	142.63225	
443	4.420	219.50513	203.03677	287.37888	222.47159	202.68369	142.63213	
444	4.430	219.50221	203.03734	287.37732	222.47375	202.68341	142.63177	
